<svg width="44" height="44" viewBox="0 0 44 44" fill="none" xmlns="http://www.w3.org/2000/svg">
<path fill-rule="evenodd" clip-rule="evenodd" d="M11.537 9.70372C12.2529 8.98776 13.4137 8.98776 14.1297 9.70372L22 17.574L29.8703 9.70372C30.5863 8.98776 31.7471 8.98776 32.463 9.70372C33.179 10.4197 33.179 11.5805 32.463 12.2964L23.2964 21.4631C22.5804 22.1791 21.4196 22.1791 20.7036 21.4631L11.537 12.2964C10.821 11.5805 10.821 10.4197 11.537 9.70372Z" fill="#1BC000"/>
<path fill-rule="evenodd" clip-rule="evenodd" d="M11.537 22.537C12.2529 21.821 13.4137 21.821 14.1297 22.537L22 30.4073L29.8703 22.537C30.5863 21.821 31.7471 21.821 32.463 22.537C33.179 23.2529 33.179 24.4137 32.463 25.1297L23.2964 34.2964C22.5804 35.0123 21.4196 35.0123 20.7036 34.2964L11.537 25.1297C10.821 24.4137 10.821 23.2529 11.537 22.537Z" fill="#1BC000"/>
</svg>
